<svg xmlns="http://www.w3.org/2000/svg" viewBox="0 0 100 100" width="100" height="100">
  <defs>
    <linearGradient id="bodyLime" x1="0%" y1="0%" x2="0%" y2="100%">
      <stop offset="0%" stop-color="#e5ff00"/>
      <stop offset="50%" stop-color="#ccff00"/>
      <stop offset="100%" stop-color="#88c400"/>
    </linearGradient>
    <linearGradient id="buttonGrad" x1="0%" y1="0%" x2="0%" y2="100%">
      <stop offset="0%" stop-color="#1e293b"/>
      <stop offset="100%" stop-color="#020617"/>
    </linearGradient>
    <filter id="padShadow3d" x="-20%" y="-20%" width="140%" height="140%">
      <feDropShadow dx="0" dy="6" stdDeviation="5" flood-color="#000000" flood-opacity="0.6"/>
    </filter>
  </defs>
  <g filter="url(#padShadow3d)">
    <path d="M 28 26 C 40 26, 60 26, 72 26 C 88 26, 95 44, 88 74 C 84 88, 70 88, 62 72 C 54 62, 46 62, 38 72 C 30 88, 16 88, 12 74 C 5 44, 12 26, 28 26 Z" fill="url(#bodyLime)" stroke="#ffffff" stroke-width="3"/>
    <circle cx="30" cy="50" r="14" fill="url(#buttonGrad)" stroke="#ffffff" stroke-width="1.5"/>
    <polygon points="30,40 33,46 27,46" fill="#ccff00"/>
    <polygon points="30,60 33,54 27,54" fill="#ccff00"/>
    <polygon points="20,50 26,47 26,53" fill="#ccff00"/>
    <polygon points="40,50 34,47 34,53" fill="#ccff00"/>
    <circle cx="70" cy="50" r="14" fill="url(#buttonGrad)" stroke="#ffffff" stroke-width="1.5"/>
    <circle cx="70" cy="42" r="3.5" fill="#ff4444"/>
    <circle cx="78" cy="50" r="3.5" fill="#ffbb00"/>
    <circle cx="70" cy="58" r="3.5" fill="#00ccff"/>
    <circle cx="62" cy="50" r="3.5" fill="#ccff00"/>
    <circle cx="50" cy="42" r="5" fill="#0f172a" stroke="#ffffff" stroke-width="1.5"/>
    <polygon points="48,39 54,42 48,45" fill="#ccff00"/>
    <path d="M 28 30 Q 50 22 72 30 Q 50 35 28 30 Z" fill="#ffffff" opacity="0.6"/>
  </g>
</svg>
