<svg xmlns="http://www.w3.org/2000/svg" viewBox="0 0 100 100" width="100" height="100">
  <defs>
    <linearGradient id="coverGrad" x1="0%" y1="0%" x2="100%" y2="100%">
      <stop offset="0%" stop-color="#1e293b"/>
      <stop offset="100%" stop-color="#090d16"/>
    </linearGradient>
    <linearGradient id="bookGold" x1="0%" y1="0%" x2="100%" y2="100%">
      <stop offset="0%" stop-color="#ffe600"/>
      <stop offset="100%" stop-color="#d48800"/>
    </linearGradient>
    <linearGradient id="pagesGrad" x1="0%" y1="0%" x2="0%" y2="100%">
      <stop offset="0%" stop-color="#ffffff"/>
      <stop offset="100%" stop-color="#cbd5e1"/>
    </linearGradient>
    <filter id="bookShadow" x="-20%" y="-20%" width="140%" height="140%">
      <feDropShadow dx="0" dy="6" stdDeviation="4" flood-color="#000000" flood-opacity="0.6"/>
    </filter>
  </defs>
  <g filter="url(#bookShadow)">
    <path d="M 18 22 L 25 18 L 80 18 L 73 22 Z" fill="#020617"/>
    <path d="M 73 22 L 80 18 L 80 78 L 73 82 Z" fill="#475569"/>
    <rect x="22" y="24" width="54" height="58" rx="4" fill="url(#pagesGrad)" stroke="#94a3b8" stroke-width="1"/>
    <rect x="18" y="20" width="54" height="62" rx="6" fill="url(#coverGrad)" stroke="url(#bookGold)" stroke-width="2.5"/>
    <polygon points="18,20 30,20 18,32" fill="url(#bookGold)"/>
    <polygon points="72,20 72,32 60,20" fill="url(#bookGold)"/>
    <polygon points="18,82 30,82 18,70" fill="url(#bookGold)"/>
    <polygon points="72,82 72,70 60,82" fill="url(#bookGold)"/>
    <circle cx="45" cy="48" r="13" fill="url(#bookGold)" stroke="#ffffff" stroke-width="2"/>
    <polygon points="45,39 48,45 54,45 49,49 51,56 45,52 39,56 41,49 36,45 42,45" fill="#0f172a"/>
    <path d="M 38 82 L 38 94 L 43 90 L 48 94 L 48 82 Z" fill="#ef4444" stroke="#ffffff" stroke-width="1"/>
    <rect x="30" y="67" width="30" height="4" rx="2" fill="#ccff00"/>
  </g>
</svg>
