<svg xmlns="http://www.w3.org/2000/svg" viewBox="0 0 100 100" width="100" height="100">
  <defs>
    <linearGradient id="folderGrad" x1="0%" y1="0%" x2="0%" y2="100%">
      <stop offset="0%" stop-color="#38bdf8"/>
      <stop offset="100%" stop-color="#0284c7"/>
    </linearGradient>
    <linearGradient id="paperGrad" x1="0%" y1="0%" x2="0%" y2="100%">
      <stop offset="0%" stop-color="#ffffff"/>
      <stop offset="100%" stop-color="#e2e8f0"/>
    </linearGradient>
    <filter id="folderShadow" x="-20%" y="-20%" width="140%" height="140%">
      <feDropShadow dx="0" dy="6" stdDeviation="4" flood-color="#000000" flood-opacity="0.6"/>
    </filter>
  </defs>
  <g filter="url(#folderShadow)">
    <path d="M 20 28 L 45 28 L 52 35 L 80 35 C 84 35, 87 38, 87 42 L 87 78 C 87 82, 84 85, 80 85 L 20 85 C 16 85, 13 82, 13 78 L 13 35 C 13 31, 16 28, 20 28 Z" fill="#0369a1"/>
    <rect x="22" y="24" width="56" height="52" rx="6" fill="url(#paperGrad)" stroke="#ffffff" stroke-width="1.5"/>
    <line x1="30" y1="36" x2="60" y2="36" stroke="#94a3b8" stroke-width="3" stroke-linecap="round"/>
    <line x1="30" y1="46" x2="70" y2="46" stroke="#94a3b8" stroke-width="3" stroke-linecap="round"/>
    <path d="M 15 42 L 85 42 C 89 42, 92 45, 92 49 L 88 80 C 88 84, 85 87, 81 87 L 19 87 C 15 87, 12 84, 12 80 L 15 46 C 15 42, 15 42, 15 42 Z" fill="url(#folderGrad)" stroke="#ffffff" stroke-width="2"/>
    <rect x="28" y="58" width="44" height="16" rx="4" fill="#ef4444" stroke="#ffffff" stroke-width="1.5" transform="rotate(-6 50 66)"/>
    <text x="50" y="70" font-family="Arial, sans-serif" font-weight="900" font-size="8" fill="#ffffff" text-anchor="middle" transform="rotate(-6 50 66)">TOP SECRET</text>
  </g>
</svg>
