<svg xmlns="http://www.w3.org/2000/svg" viewBox="0 0 100 100" width="100" height="100">
  <defs>
    <linearGradient id="cartGold" x1="0%" y1="0%" x2="100%" y2="100%">
      <stop offset="0%" stop-color="#ffe600"/>
      <stop offset="100%" stop-color="#d48800"/>
    </linearGradient>
    <linearGradient id="cartLime" x1="0%" y1="0%" x2="0%" y2="100%">
      <stop offset="0%" stop-color="#d4ff00"/>
      <stop offset="100%" stop-color="#88bb00"/>
    </linearGradient>
    <linearGradient id="metalWire" x1="0%" y1="0%" x2="0%" y2="100%">
      <stop offset="0%" stop-color="#ffffff"/>
      <stop offset="100%" stop-color="#94a3b8"/>
    </linearGradient>
    <filter id="cartShadow" x="-20%" y="-20%" width="140%" height="140%">
      <feDropShadow dx="0" dy="6" stdDeviation="4" flood-color="#000000" flood-opacity="0.6"/>
    </filter>
  </defs>
  <g filter="url(#cartShadow)">
    <path d="M 16 26 L 30 26 L 34 38" fill="none" stroke="url(#cartLime)" stroke-width="6" stroke-linecap="round" stroke-linejoin="round"/>
    <path d="M 32 38 L 84 38 L 74 68 L 38 68 Z" fill="url(#cartLime)" stroke="#ffffff" stroke-width="2.5" opacity="0.95"/>
    <line x1="45" y1="38" x2="48" y2="68" stroke="#ffffff" stroke-width="2" opacity="0.6"/>
    <line x1="58" y1="38" x2="60" y2="68" stroke="#ffffff" stroke-width="2" opacity="0.6"/>
    <line x1="71" y1="38" x2="70" y2="68" stroke="#ffffff" stroke-width="2" opacity="0.6"/>
    <line x1="36" y1="52" x2="79" y2="52" stroke="#ffffff" stroke-width="2" opacity="0.6"/>
    <path d="M 38 68 L 38 78 L 74 78 L 74 68" fill="none" stroke="url(#metalWire)" stroke-width="4" stroke-linecap="round"/>
    <circle cx="42" cy="82" r="7" fill="#0f172a" stroke="#ffffff" stroke-width="2"/>
    <circle cx="42" cy="82" r="2.5" fill="#ccff00"/>
    <circle cx="70" cy="82" r="7" fill="#0f172a" stroke="#ffffff" stroke-width="2"/>
    <circle cx="70" cy="82" r="2.5" fill="#ccff00"/>
    <rect x="46" y="22" width="22" height="22" rx="4" fill="url(#cartGold)" stroke="#ffffff" stroke-width="2" transform="rotate(12 57 33)"/>
    <path d="M 57 22 L 57 44 M 46 33 L 68 33" stroke="#ffffff" stroke-width="2.5" transform="rotate(12 57 33)"/>
  </g>
</svg>
