<svg xmlns="http://www.w3.org/2000/svg" viewBox="0 0 100 100" width="100" height="100">
  <defs>
    <linearGradient id="redHandle" x1="0%" y1="0%" x2="0%" y2="100%">
      <stop offset="0%" stop-color="#ff4757"/>
      <stop offset="100%" stop-color="#ff6b81"/>
    </linearGradient>
    <linearGradient id="chromeWire" x1="0%" y1="0%" x2="100%" y2="100%">
      <stop offset="0%" stop-color="#ffffff"/>
      <stop offset="50%" stop-color="#e2e8f0"/>
      <stop offset="100%" stop-color="#94a3b8"/>
    </linearGradient>
    <linearGradient id="goldGift" x1="0%" y1="0%" x2="100%" y2="100%">
      <stop offset="0%" stop-color="#ffe600"/>
      <stop offset="100%" stop-color="#ff9900"/>
    </linearGradient>
    <filter id="caddieShadow" x="-20%" y="-20%" width="140%" height="140%">
      <feDropShadow dx="0" dy="5" stdDeviation="4" flood-color="#000000" flood-opacity="0.6"/>
    </filter>
  </defs>
  <g filter="url(#caddieShadow)">
    <rect x="14" y="22" width="16" height="8" rx="4" fill="url(#redHandle)" stroke="#ffffff" stroke-width="1.5"/>
    <path d="M 22 28 L 32 40" stroke="url(#chromeWire)" stroke-width="5" stroke-linecap="round"/>
    
    <rect x="42" y="24" width="28" height="26" rx="5" fill="url(#goldGift)" stroke="#ffffff" stroke-width="2" transform="rotate(8 56 37)"/>
    <path d="M 56 24 L 56 50 M 42 37 L 70 37" stroke="#ffffff" stroke-width="3" transform="rotate(8 56 37)"/>
    <polygon points="56,22 60,16 56,18 52,16" fill="#ff4757" transform="rotate(8 56 37)"/>

    <path d="M 32 36 L 86 36 C 88 36, 90 38, 89 41 L 80 66 C 79 69, 76 71, 73 71 L 40 71 C 37 71, 34 69, 33 66 L 28 41 C 27 38, 29 36, 32 36 Z" fill="url(#chromeWire)" opacity="0.4" stroke="#ffffff" stroke-width="2"/>
    <path d="M 32 36 L 86 36 L 79 66 L 39 66 Z" fill="none" stroke="url(#chromeWire)" stroke-width="3.5" stroke-linejoin="round"/>
    <line x1="46" y1="36" x2="49" y2="66" stroke="#ffffff" stroke-width="2.5"/>
    <line x1="60" y1="36" x2="61" y2="66" stroke="#ffffff" stroke-width="2.5"/>
    <line x1="74" y1="36" x2="72" y2="66" stroke="#ffffff" stroke-width="2.5"/>
    <line x1="36" y1="51" x2="82" y2="51" stroke="#ffffff" stroke-width="2.5"/>

    <path d="M 39 66 L 39 78 L 74 78 L 74 66" fill="none" stroke="url(#chromeWire)" stroke-width="4.5" stroke-linecap="round"/>
    
    <circle cx="41" cy="83" r="7.5" fill="#0f172a" stroke="#ffffff" stroke-width="2"/>
    <circle cx="41" cy="83" r="3" fill="#ff4757"/>
    <circle cx="72" cy="83" r="7.5" fill="#0f172a" stroke="#ffffff" stroke-width="2"/>
    <circle cx="72" cy="83" r="3" fill="#ff4757"/>
  </g>
</svg>
